<svg width="80" height="68" viewBox="0 0 80 68" fill="none" xmlns="http://www.w3.org/2000/svg">
<path fill-rule="evenodd" clip-rule="evenodd" d="M57.5655 8.25876L70.294 31.8484H79.9778L62.7913 0H52.3396L45.973 11.7981L50.8153 20.7695L57.5655 8.25876Z" fill="#008CFA"/>
<path fill-rule="evenodd" clip-rule="evenodd" d="M29.5835 27.5527L27.2662 31.8484H17.5824L24.7421 18.5803L29.5835 27.5527ZM39.9947 8.25876L52.7232 31.8484H62.406L45.2205 0H34.7688L28.4022 11.7981L33.2436 20.7705L39.9947 8.25876Z" fill="#0064BE"/>
<path fill-rule="evenodd" clip-rule="evenodd" d="M22.4239 8.25132L35.1417 31.8206H44.8178L47.1332 27.5286L42.2966 18.5645L39.9802 22.8575L27.6459 0H17.2029L0.0328941 31.8206H9.707L22.4239 8.25132Z" fill="#008CFA"/>
<path d="M80 62.475H77.7966V67.8485H76.2231V62.475H74.0294V61.2261H80V62.475ZM73.2788 66.6192V67.8485H67.9487V61.2261H73.1513V62.4564H69.5319V63.8939H72.7292V65.086H69.5319V66.6192H73.2788ZM66.774 62.475H64.5707V67.8485H62.9981V62.475H60.8044V61.2261H66.774V62.475ZM53.266 61.2261H54.8502V65.5404L58.1345 61.2261H59.6298V67.8485H58.0562V63.5435L54.772 67.8485H53.267V61.2261H53.266ZM49.21 67.9628C48.5087 67.9628 47.874 67.816 47.307 67.5233C46.74 67.2297 46.2937 66.8236 45.9692 66.3023C45.6446 65.782 45.4823 65.1938 45.4823 64.5378C45.4823 63.8818 45.6446 63.2927 45.9692 62.7732C46.2937 62.2529 46.74 61.8459 47.307 61.5523C47.874 61.2586 48.5116 61.1127 49.2196 61.1127C49.8166 61.1127 50.3556 61.214 50.8376 61.4157C51.3196 61.6173 51.7244 61.9072 52.0518 62.2854L51.0298 63.1942C50.5642 62.6766 49.9866 62.4183 49.2988 62.4183C48.8728 62.4183 48.4923 62.5084 48.1571 62.6877C47.8228 62.8671 47.563 63.118 47.3756 63.4404C47.1892 63.7619 47.0955 64.128 47.0955 64.5378C47.0955 64.9476 47.1892 65.3127 47.3756 65.6352C47.563 65.9567 47.8228 66.2066 48.1571 66.3869C48.4923 66.5662 48.8728 66.6564 49.2988 66.6564C49.9866 66.6564 50.5642 66.3953 51.0298 65.8712L52.0518 66.779C51.7244 67.1637 51.3177 67.4573 50.8328 67.659C50.3479 67.8615 49.806 67.9628 49.21 67.9628ZM41.5537 64.7747C42.0329 64.7747 42.3961 64.6753 42.6453 64.4765C42.8935 64.2776 43.0182 63.9951 43.0182 63.629C43.0182 63.2573 42.8935 62.9712 42.6453 62.7732C42.3961 62.5744 42.0319 62.475 41.5537 62.475H40.2555V64.7747H41.5537ZM41.6426 61.2261C42.2521 61.2261 42.7825 61.3237 43.2316 61.5197C43.6798 61.7158 44.0266 61.9927 44.2691 62.3523C44.5125 62.7119 44.6332 63.1375 44.6332 63.63C44.6332 64.115 44.5125 64.5396 44.2691 64.902C44.0266 65.2654 43.6798 65.5423 43.2316 65.7346C42.7825 65.9269 42.2521 66.0236 41.6426 66.0236H40.2555V67.8495H38.6626V61.227H41.6426V61.2261ZM37.2031 66.6192V67.8485H31.8719V61.2261H37.0756V62.4564H33.4561V63.8939H36.6534V65.086H33.4561V66.6192H37.2031ZM27.7086 66.7131C28.4563 66.7131 28.8301 66.4296 28.8301 65.8619C28.8301 65.3127 28.4563 65.0386 27.7086 65.0386H25.9583V66.7131H27.7086ZM25.9583 63.97H27.4439C27.7907 63.97 28.0535 63.9022 28.2302 63.7666C28.407 63.63 28.4959 63.4302 28.4959 63.1654C28.4959 62.907 28.406 62.7073 28.2254 62.5688C28.0448 62.4294 27.7849 62.3607 27.4439 62.3607H25.9583V63.97ZM29.145 64.3956C29.5642 64.5155 29.8859 64.7106 30.1081 64.9829C30.3312 65.2542 30.4433 65.5878 30.4433 65.9855C30.4433 66.5718 30.2114 67.029 29.7497 67.3579C29.287 67.6859 28.6272 67.8495 27.7675 67.8495H24.3741V61.227H27.5801C28.38 61.227 29.003 61.3757 29.4493 61.6721C29.8946 61.9685 30.1177 62.3913 30.1177 62.9396C30.1177 63.2685 30.0318 63.5565 29.8617 63.8056C29.6917 64.0537 29.4522 64.2507 29.145 64.3956ZM16.1287 61.2261H17.7119V65.5404L20.9971 61.2261H22.4924V67.8485H20.9179V63.5435L17.6336 67.8485H16.1287V61.2261ZM14.2354 61.2261V67.8485H12.6425V65.1334H9.51473V67.8485H7.92185V61.2261H9.51473V63.8372H12.6425V61.2261H14.2354ZM6.99357 61.2261L4.06284 66.4668C3.78078 66.9714 3.44076 67.3533 3.04375 67.6116C2.6477 67.8699 2.21592 68 1.75032 68C1.39002 68 1.01619 67.9238 0.629808 67.7733L1.01329 66.609C1.28859 66.6907 1.51849 66.7316 1.70203 66.7316C1.89812 66.7316 2.07585 66.6852 2.2333 66.5941C2.39076 66.5031 2.53468 66.359 2.66606 66.1639L2.72498 66.0877L0.0106256 61.2252H1.71265L3.54218 64.7822L5.42967 61.2252H6.99357V61.2261ZM76.1072 49.8285C74.8485 49.8285 74.212 49.3462 74.1994 48.3808H75.2909C75.3035 48.8417 75.5759 49.0712 76.1072 49.0712C76.3699 49.0712 76.5699 49.0136 76.707 48.8965C76.8442 48.7794 76.9166 48.6075 76.9234 48.3808H78.0149C78.0082 48.8538 77.8478 49.2134 77.5329 49.4596C77.218 49.7049 76.7428 49.8285 76.1072 49.8285ZM72.9301 50.2541H74.5133V54.5684L77.7986 50.2541H79.2939V56.8765H77.7203V52.5715L74.4351 56.8765H72.9301V50.2541ZM64.8547 50.2541H66.4389V54.5684L69.7231 50.2541H71.2184V56.8765H69.6449V52.5715L66.3606 56.8765H64.8557V50.2541H64.8547ZM60.5079 54.2088H59.4067V56.8765H57.8225V50.2541H59.4067V52.932H60.5475L62.3567 50.2541H64.0394L61.7868 53.4515L64.107 56.8765H62.2978L60.5079 54.2088ZM53.9577 56.9908C53.2564 56.9908 52.6217 56.844 52.0547 56.5513C51.4877 56.2577 51.0414 55.8516 50.7169 55.3303C50.3923 54.81 50.23 54.2218 50.23 53.5658C50.23 52.9097 50.3923 52.3216 50.7169 51.8012C51.0414 51.2808 51.4877 50.8739 52.0547 50.5802C52.6217 50.2866 53.2593 50.1407 53.9673 50.1407C54.5643 50.1407 55.1033 50.242 55.5853 50.4436C56.0673 50.6453 56.4721 50.9352 56.7995 51.3134L55.7766 52.2221C55.311 51.7046 54.7343 51.4462 54.0456 51.4462C53.6196 51.4462 53.239 51.5364 52.9048 51.7157C52.5705 51.896 52.3107 52.1459 52.1233 52.4684C51.9359 52.7899 51.8432 53.156 51.8432 53.5648C51.8432 53.9755 51.9369 54.3407 52.1233 54.6631C52.3107 54.9846 52.5705 55.2346 52.9048 55.4149C53.239 55.5951 53.6196 55.6843 54.0456 55.6843C54.7343 55.6843 55.3119 55.4232 55.7766 54.8992L56.7995 55.807C56.4721 56.1917 56.0654 56.4853 55.5805 56.687C55.0956 56.8895 54.5537 56.9908 53.9577 56.9908ZM49.4331 55.6472V56.8765H44.102V50.2541H49.3056V51.4843H45.6861V52.9218H48.8835V54.114H45.6861V55.6472H49.4331ZM42.3912 50.2541V56.8765H40.8177V54.4922C40.2207 54.7003 39.6663 54.8044 39.1553 54.8044C38.2308 54.8044 37.5228 54.5916 37.0311 54.1651C36.5394 53.7395 36.2931 53.1262 36.2931 52.3253V50.2532H37.8667V52.1552C37.8667 52.6096 37.9923 52.9516 38.2444 53.182C38.4974 53.4115 38.8626 53.5267 39.3417 53.5267C39.8662 53.5267 40.3579 53.4282 40.8167 53.2331V50.2522H42.3912V50.2541ZM28.8571 50.2541H30.4413V54.5684L33.7266 50.2541H35.2219V56.8765H33.6474V52.5715L30.3631 56.8765H28.8581V50.2541H28.8571ZM27.8545 51.5029H25.6511V56.8765H24.0776V51.5029H21.8839V50.2541H27.8545V51.5029ZM18.3243 54.2088H17.2221V56.8765H15.6389V50.2541H17.2221V52.932H18.3629L20.1731 50.2541H21.8549L19.6023 53.4515L21.9235 56.8774H20.1142L18.3243 54.2088ZM11.5278 53.8027C12.0069 53.8027 12.3701 53.7033 12.6193 53.5044C12.8685 53.3056 12.9932 53.0231 12.9932 52.657C12.9932 52.2853 12.8685 51.9991 12.6193 51.8012C12.3711 51.6024 12.0069 51.5029 11.5278 51.5029H10.2295V53.8027H11.5278ZM11.6157 50.2541C12.2252 50.2541 12.7555 50.3516 13.2037 50.5477C13.6529 50.7438 13.9997 51.0207 14.2421 51.3803C14.4846 51.7399 14.6063 52.1655 14.6063 52.6579C14.6063 53.143 14.4846 53.5676 14.2421 53.93C13.9997 54.2933 13.6529 54.5702 13.2037 54.7626C12.7555 54.9549 12.2252 55.0516 11.6157 55.0516H10.2286V56.8774H8.63473V50.255H11.6157V50.2541ZM4.93703 54.2943L3.8455 51.7594L2.75396 54.2943H4.93703ZM5.43933 55.4576H2.24296L1.63248 56.8765H0L3.06886 50.2541H4.64241L7.72093 56.8765H6.04885L5.43933 55.4576ZM76.1062 38.8565C74.8476 38.8565 74.211 38.3742 74.1984 37.4088H75.29C75.3025 37.8697 75.5749 38.0992 76.1062 38.0992C76.3689 38.0992 76.5689 38.0406 76.7061 37.9245C76.8432 37.8074 76.9157 37.6355 76.9224 37.4088H78.014C78.0072 37.8817 77.8469 38.2413 77.532 38.4876C77.218 38.7329 76.7428 38.8565 76.1062 38.8565ZM72.9292 39.2821H74.5133V43.5963L77.7976 39.2821H79.2929V45.9045H77.7194V41.5995L74.4351 45.9045H72.9301V39.2821H72.9292ZM64.733 39.2821H66.3172V43.5963L69.6014 39.2821H71.0967V45.9045H69.5232V41.5995L66.2379 45.9045H64.733V39.2821ZM60.2644 43.2377H59.1632V45.9054H57.5791V39.283H59.1632V41.9609H60.304L62.1133 39.283H63.795L61.5424 42.4804L63.8636 45.9054H62.0534L60.2644 43.2377ZM53.5935 46.0188C52.8922 46.0188 52.2566 45.872 51.6896 45.5793C51.1226 45.2856 50.6763 44.8796 50.3527 44.3583C50.0281 43.8379 49.8649 43.2497 49.8649 42.5937C49.8649 41.9377 50.0272 41.3495 50.3527 40.8292C50.6773 40.3088 51.1226 39.9018 51.6896 39.6082C52.2566 39.3146 52.8941 39.1687 53.6022 39.1687C54.1992 39.1687 54.7391 39.27 55.2202 39.4716C55.7022 39.6732 56.1069 39.9632 56.4354 40.3413L55.4124 41.2501C54.9468 40.7325 54.3701 40.4742 53.6814 40.4742C53.2554 40.4742 52.8748 40.5643 52.5406 40.7437C52.2054 40.923 51.9456 41.1739 51.7582 41.4963C51.5708 41.8178 51.478 42.184 51.478 42.5928C51.478 43.0026 51.5717 43.3687 51.7582 43.6902C51.9446 44.0126 52.2054 44.2626 52.5406 44.4428C52.8748 44.6231 53.2554 44.7123 53.6814 44.7123C54.3701 44.7123 54.9468 44.4503 55.4124 43.9271L56.4354 44.835C56.1079 45.2197 55.7003 45.5124 55.2154 45.7149C54.7304 45.9175 54.1905 46.0188 53.5935 46.0188ZM48.4952 39.2821V45.9045H46.9023V43.1884H43.7745V45.9045H42.1816V39.2821H43.7745V41.8931H46.9023V39.2821H48.4952ZM38.3612 43.3222L37.2697 40.7864L36.1782 43.3222H38.3612ZM38.8635 44.4865H35.6662L35.0567 45.9054H33.4242L36.4921 39.283H38.0657L41.1451 45.9054H39.4731L38.8635 44.4865ZM30.8741 45.9054L30.8644 41.9405L28.8388 45.2048H28.1307L26.1042 42.0167V45.9054H24.6088V39.283H25.9264L28.5036 43.3984L31.0402 39.283H32.3588L32.3684 45.9054H30.8741ZM20.3567 42.8297C20.8358 42.8297 21.199 42.7313 21.4482 42.5324C21.6974 42.3336 21.822 42.0511 21.822 41.685C21.822 41.3133 21.6974 41.0271 21.4482 40.8292C21.199 40.6303 20.8358 40.5309 20.3567 40.5309H19.0584V42.8297H20.3567ZM20.4446 39.2821C21.0541 39.2821 21.5844 39.3796 22.0336 39.5757C22.4818 39.7717 22.8286 40.0486 23.071 40.4082C23.3135 40.7678 23.4352 41.1934 23.4352 41.6859C23.4352 42.1709 23.3135 42.5956 23.071 42.958C22.8286 43.3213 22.4818 43.5982 22.0336 43.7905C21.5844 43.9829 21.0541 44.0786 20.4446 44.0786H19.0575V45.9045H17.4636V39.2821H20.4446ZM16.5856 39.2821L13.6548 44.5228C13.3728 45.0273 13.0337 45.4092 12.6367 45.6675C12.2397 45.9258 11.8089 46.0559 11.3433 46.0559C10.983 46.0559 10.6092 45.9797 10.2228 45.8292L10.6063 44.6649C10.8816 44.7467 11.1105 44.7876 11.295 44.7876C11.4911 44.7876 11.6688 44.7411 11.8263 44.6501C11.9837 44.559 12.1277 44.415 12.259 44.2198L12.3179 44.1436L9.60263 39.2811H11.3047L13.1332 42.84L15.0217 39.283H16.5856V39.2821ZM7.04283 45.9054L7.03317 41.9405L5.00755 45.2048H4.2995L2.27291 42.0167V45.9054H0.778567V39.283H2.09614L4.67332 43.3984L7.20994 39.283H8.52848L8.53814 45.9054H7.04283Z" fill="black"/>
</svg>
